<mxfile host="Electron" modified="2023-12-11T03:44:43.381Z" agent="Mozilla/5.0 (Windows NT 10.0; Win64; x64) AppleWebKit/537.36 (KHTML, like Gecko) draw.io/22.1.2 Chrome/114.0.5735.289 Electron/25.9.4 Safari/537.36" etag="oOw0_lKCM2Glrknn7pnF" version="22.1.2" type="device">
  <diagram name="Trang-1" id="_k-Chzy2qT7Ti57JTN79">
    <mxGraphModel dx="552" dy="647" grid="1" gridSize="10" guides="1" tooltips="1" connect="1" arrows="1" fold="1" page="1" pageScale="1" pageWidth="827" pageHeight="1169" math="0" shadow="0">
      <root>
        <mxCell id="0" />
        <mxCell id="1" parent="0" />
        <mxCell id="NBp4li4aagU_YhR3xmd5-1" value="" style="ellipse;html=1;shape=startState;fillColor=#000000;strokeColor=#ff0000;" parent="1" vertex="1">
          <mxGeometry x="454" y="164" width="30" height="30" as="geometry" />
        </mxCell>
        <mxCell id="NBp4li4aagU_YhR3xmd5-2" value="" style="edgeStyle=orthogonalEdgeStyle;html=1;verticalAlign=bottom;endArrow=open;endSize=8;strokeColor=#ff0000;rounded=0;entryX=0.5;entryY=0;entryDx=0;entryDy=0;" parent="1" source="NBp4li4aagU_YhR3xmd5-1" target="NBp4li4aagU_YhR3xmd5-7" edge="1">
          <mxGeometry relative="1" as="geometry">
            <mxPoint x="469" y="254" as="targetPoint" />
          </mxGeometry>
        </mxCell>
        <mxCell id="NBp4li4aagU_YhR3xmd5-7" value="Màn hình hiển thị trang liên hệ" style="rounded=1;whiteSpace=wrap;html=1;arcSize=40;fontColor=#000000;fillColor=#ffffc0;strokeColor=#ff0000;" parent="1" vertex="1">
          <mxGeometry x="409" y="254" width="120" height="40" as="geometry" />
        </mxCell>
        <mxCell id="NBp4li4aagU_YhR3xmd5-8" value="" style="edgeStyle=orthogonalEdgeStyle;html=1;verticalAlign=bottom;endArrow=open;endSize=8;strokeColor=#ff0000;rounded=0;entryX=0.5;entryY=0;entryDx=0;entryDy=0;" parent="1" source="NBp4li4aagU_YhR3xmd5-7" target="rPQ6iwXM4GGpc_3LtgXS-3" edge="1">
          <mxGeometry relative="1" as="geometry">
            <mxPoint x="469" y="360" as="targetPoint" />
          </mxGeometry>
        </mxCell>
        <mxCell id="LRtbAlsSm4fegoS5Vz1c-28" value="" style="ellipse;html=1;shape=endState;fillColor=#000000;strokeColor=#ff0000;" parent="1" vertex="1">
          <mxGeometry x="504" y="974" width="30" height="30" as="geometry" />
        </mxCell>
        <mxCell id="rPQ6iwXM4GGpc_3LtgXS-3" value="" style="rhombus;whiteSpace=wrap;html=1;fontColor=#000000;fillColor=#ffffc0;strokeColor=#ff0000;" vertex="1" parent="1">
          <mxGeometry x="429" y="360" width="80" height="40" as="geometry" />
        </mxCell>
        <mxCell id="rPQ6iwXM4GGpc_3LtgXS-4" value="Sai" style="edgeStyle=orthogonalEdgeStyle;html=1;align=left;verticalAlign=bottom;endArrow=open;endSize=8;strokeColor=#ff0000;rounded=0;entryX=1;entryY=0.5;entryDx=0;entryDy=0;" edge="1" source="rPQ6iwXM4GGpc_3LtgXS-3" parent="1" target="rPQ6iwXM4GGpc_3LtgXS-7">
          <mxGeometry x="-0.682" relative="1" as="geometry">
            <mxPoint x="310" y="380" as="targetPoint" />
            <mxPoint as="offset" />
          </mxGeometry>
        </mxCell>
        <mxCell id="rPQ6iwXM4GGpc_3LtgXS-5" value="Đúng" style="edgeStyle=orthogonalEdgeStyle;html=1;align=left;verticalAlign=top;endArrow=open;endSize=8;strokeColor=#ff0000;rounded=0;entryX=0.5;entryY=0;entryDx=0;entryDy=0;" edge="1" source="rPQ6iwXM4GGpc_3LtgXS-3" parent="1" target="rPQ6iwXM4GGpc_3LtgXS-12">
          <mxGeometry x="-1" relative="1" as="geometry">
            <mxPoint x="469" y="490" as="targetPoint" />
          </mxGeometry>
        </mxCell>
        <mxCell id="rPQ6iwXM4GGpc_3LtgXS-6" value="[Người dùng điền đầy đủ thông tin vào form liên hệ]" style="text;html=1;align=center;verticalAlign=middle;resizable=0;points=[];autosize=1;strokeColor=none;fillColor=none;" vertex="1" parent="1">
          <mxGeometry x="470" y="310" width="300" height="30" as="geometry" />
        </mxCell>
        <mxCell id="rPQ6iwXM4GGpc_3LtgXS-7" value="Hiển thị thông báo lỗi" style="rounded=1;whiteSpace=wrap;html=1;arcSize=40;fontColor=#000000;fillColor=#ffffc0;strokeColor=#ff0000;" vertex="1" parent="1">
          <mxGeometry x="180" y="360" width="120" height="40" as="geometry" />
        </mxCell>
        <mxCell id="rPQ6iwXM4GGpc_3LtgXS-12" value="Condition" style="rhombus;whiteSpace=wrap;html=1;fontColor=#000000;fillColor=#ffffc0;strokeColor=#ff0000;" vertex="1" parent="1">
          <mxGeometry x="429" y="480" width="80" height="40" as="geometry" />
        </mxCell>
        <mxCell id="rPQ6iwXM4GGpc_3LtgXS-13" value="no" style="edgeStyle=orthogonalEdgeStyle;html=1;align=left;verticalAlign=bottom;endArrow=open;endSize=8;strokeColor=#ff0000;rounded=0;" edge="1" source="rPQ6iwXM4GGpc_3LtgXS-12" parent="1">
          <mxGeometry x="-1" relative="1" as="geometry">
            <mxPoint x="540" y="530" as="targetPoint" />
          </mxGeometry>
        </mxCell>
        <mxCell id="rPQ6iwXM4GGpc_3LtgXS-14" value="yes" style="edgeStyle=orthogonalEdgeStyle;html=1;align=left;verticalAlign=top;endArrow=open;endSize=8;strokeColor=#ff0000;rounded=0;" edge="1" source="rPQ6iwXM4GGpc_3LtgXS-12" parent="1">
          <mxGeometry x="-1" relative="1" as="geometry">
            <mxPoint x="300" y="500" as="targetPoint" />
          </mxGeometry>
        </mxCell>
      </root>
    </mxGraphModel>
  </diagram>
</mxfile>
